<svg width="16" height="16" viewBox="0 0 16 16" fill="none" xmlns="http://www.w3.org/2000/svg">
<g clip-path="url(#clip0_22_64)">
<g filter="url(#filter0_d_22_64)">
<path d="M8 14C11.3137 14 14 11.3137 14 8C14 4.68629 11.3137 2 8 2C4.68629 2 2 4.68629 2 8C2 11.3137 4.68629 14 8 14Z" fill="black"/>
</g>
<path d="M8 14C11.3137 14 14 11.3137 14 8C14 4.68629 11.3137 2 8 2C4.68629 2 2 4.68629 2 8C2 11.3137 4.68629 14 8 14Z" fill="white"/>
<path fill-rule="evenodd" clip-rule="evenodd" d="M8.582 6L8.219 6.35L9.671 7.75H5.333V8.25H9.671L8.22 9.65L8.583 10L10.657 8L8.582 6Z" fill="#1B2330"/>
</g>
<defs>
<filter id="filter0_d_22_64" x="0" y="0" width="16" height="16" filterUnits="userSpaceOnUse" color-interpolation-filters="sRGB">
<feFlood flood-opacity="0" result="BackgroundImageFix"/>
<feColorMatrix in="SourceAlpha" type="matrix" values="0 0 0 0 0 0 0 0 0 0 0 0 0 0 0 0 0 0 127 0" result="hardAlpha"/>
<feOffset/>
<feGaussianBlur stdDeviation="1"/>
<feColorMatrix type="matrix" values="0 0 0 0 0.384314 0 0 0 0 0.878431 0 0 0 0 0.85098 0 0 0 0.811141 0"/>
<feBlend mode="normal" in2="BackgroundImageFix" result="effect1_dropShadow_22_64"/>
<feBlend mode="normal" in="SourceGraphic" in2="effect1_dropShadow_22_64" result="shape"/>
</filter>
<clipPath id="clip0_22_64">
<rect width="16" height="16" fill="white"/>
</clipPath>
</defs>
</svg>
