<svg width="33" height="33" viewBox="0 0 33 33" fill="none" xmlns="http://www.w3.org/2000/svg">
<circle cx="16.5" cy="16.5" r="16.5" fill="white"/>
<circle cx="16.5" cy="16.5" r="15.5" fill="#0C1524"/>
<path d="M17.0016 12.6542C15.0152 12.6542 13.4129 14.3712 13.4129 16.5C13.4129 18.6288 15.0152 20.3458 17.0016 20.3458C18.988 20.3458 20.5902 18.6288 20.5902 16.5C20.5902 14.3712 18.988 12.6542 17.0016 12.6542ZM17.0016 19.0003C15.7179 19.0003 14.6685 17.879 14.6685 16.5C14.6685 15.121 15.7148 13.9997 17.0016 13.9997C18.2883 13.9997 19.3346 15.121 19.3346 16.5C19.3346 17.879 18.2852 19.0003 17.0016 19.0003V19.0003ZM21.574 12.4969C21.574 12.9956 21.1992 13.3939 20.737 13.3939C20.2716 13.3939 19.8999 12.9922 19.8999 12.4969C19.8999 12.0015 20.2747 11.5999 20.737 11.5999C21.1992 11.5999 21.574 12.0015 21.574 12.4969ZM23.9508 13.4073C23.8977 12.2057 23.6416 11.1413 22.8202 10.2644C22.0019 9.38743 21.0087 9.11296 19.8875 9.05272C18.7318 8.98243 15.2682 8.98243 14.1125 9.05272C12.9944 9.10962 12.0012 9.38408 11.1798 10.261C10.3584 11.138 10.1054 12.2023 10.0492 13.4039C9.9836 14.6424 9.9836 18.3543 10.0492 19.5927C10.1023 20.7943 10.3584 21.8587 11.1798 22.7356C12.0012 23.6126 12.9913 23.887 14.1125 23.9473C15.2682 24.0176 18.7318 24.0176 19.8875 23.9473C21.0087 23.8904 22.0019 23.6159 22.8202 22.7356C23.6385 21.8587 23.8946 20.7943 23.9508 19.5927C24.0164 18.3543 24.0164 14.6457 23.9508 13.4073V13.4073ZM22.4579 20.9215C22.2143 21.5775 21.7427 22.083 21.1274 22.3474C20.206 22.739 18.0197 22.6486 17.0016 22.6486C15.9834 22.6486 13.794 22.7356 12.8757 22.3474C12.2636 22.0863 11.792 21.5809 11.5452 20.9215C11.1798 19.9341 11.2641 17.5912 11.2641 16.5C11.2641 15.4088 11.1829 13.0625 11.5452 12.0785C11.7888 11.4225 12.2605 10.917 12.8757 10.6526C13.7971 10.261 15.9834 10.3514 17.0016 10.3514C18.0197 10.3514 20.2091 10.2644 21.1274 10.6526C21.7395 10.9137 22.2112 11.4191 22.4579 12.0785C22.8233 13.0659 22.739 15.4088 22.739 16.5C22.739 17.5912 22.8233 19.9375 22.4579 20.9215Z" fill="white"/>
</svg>
