<svg width="33" height="33" viewBox="0 0 33 33" fill="none" xmlns="http://www.w3.org/2000/svg">
<circle cx="16.5" cy="16.5" r="16.5" fill="white"/>
<circle cx="16.5" cy="16.5" r="15.5" fill="#0C1524"/>
<path d="M21.7665 13.2398C21.7741 13.382 21.7741 13.5242 21.7741 13.6664C21.7741 18.0031 19.2995 23 14.7767 23C13.3833 23 12.0888 22.4617 11 21.5274C11.198 21.5578 11.3883 21.568 11.5939 21.568C12.7436 21.568 13.802 21.05 14.6472 20.1664C13.566 20.1359 12.6599 19.1914 12.3477 17.8914C12.5 17.9219 12.6523 17.9422 12.8122 17.9422C13.033 17.9422 13.2538 17.9015 13.4594 17.8305C12.3325 17.5258 11.4873 16.2055 11.4873 14.6109V14.5703C11.8147 14.8141 12.1954 14.9664 12.599 14.9867C11.9365 14.3976 11.5025 13.3922 11.5025 12.2547C11.5025 11.6453 11.6243 11.0867 11.8375 10.5992C13.0482 12.5898 14.868 13.8898 16.9086 14.032C16.8706 13.7883 16.8477 13.5344 16.8477 13.2805C16.8477 11.4726 17.9442 10 19.3071 10C20.0152 10 20.6548 10.3961 21.1041 11.0359C21.6599 10.8938 22.1929 10.6195 22.665 10.2438C22.4822 11.0055 22.0939 11.6453 21.5838 12.0516C22.0787 11.9805 22.5584 11.7976 23 11.5438C22.665 12.1937 22.2462 12.7726 21.7665 13.2398V13.2398Z" fill="white"/>
</svg>
